<?xml version="1.0" encoding="utf-8"?>
<!-- Generator: Adobe Illustrator 18.1.0, SVG Export Plug-In . SVG Version: 6.00 Build 0)  -->
<svg version="1.1" id="Layer_1" xmlns="http://www.w3.org/2000/svg" xmlns:xlink="http://www.w3.org/1999/xlink" x="0px" y="0px"
	 viewBox="0 0 1315.9 1336.8" enable-background="new 0 0 1315.9 1336.8" xml:space="preserve">
<g>
	<g>
		<g enable-background="new    ">
			<g>
				<polygon fill="#8E9896" points="520.6,1067.8 516.5,1079.3 484.5,1069.4 488.6,1057.9 				"/>
			</g>
			<g>
				<polygon fill="#79A399" points="488.6,1057.9 510.8,1040.7 520.6,1067.8 				"/>
			</g>
		</g>
	</g>
	<g>
		<g enable-background="new    ">
			<g>
				<polygon fill="#64857E" points="152.9,264.6 209.5,234.9 353.6,267.8 297,297.5 				"/>
			</g>
			<g>
				<polygon fill="#6E938A" points="297,297.5 353.6,267.8 266.2,382.2 209.5,411.9 				"/>
			</g>
			<g>
				<polygon fill="#A0D7CA" points="209.5,411.9 152.9,264.6 297,297.5 				"/>
			</g>
		</g>
	</g>
	<g>
		<g enable-background="new    ">
			<g>
				<polygon fill="#64857E" points="531.4,62.8 592,54.5 711,130.9 650.4,139.2 				"/>
			</g>
			<g>
				<polygon fill="#6E938A" points="650.4,139.2 711,130.9 595.1,205.4 534.5,213.7 				"/>
			</g>
			<g>
				<polygon fill="#A0D7CA" points="534.5,213.7 531.4,62.8 650.4,139.2 				"/>
			</g>
		</g>
	</g>
	<g>
		<g enable-background="new    ">
			<g>
				<polygon fill="#64857E" points="483.8,28.6 529.2,90.3 516.2,266.9 470.9,205.2 				"/>
			</g>
			<g>
				<polygon fill="#6E938A" points="470.9,205.2 516.2,266.9 364.9,183.9 319.6,122.2 				"/>
			</g>
			<g>
				<polygon fill="#A0D7CA" points="319.6,122.2 483.8,28.6 470.9,205.2 				"/>
			</g>
		</g>
	</g>
	<g>
		<g enable-background="new    ">
			<g>
				<polygon fill="#9ACFC2" points="1284.2,614.5 1281.4,692.3 1068,693.9 1070.8,616 				"/>
			</g>
			<g>
				<polygon fill="#79A399" points="1070.8,616 1172.7,468.9 1284.2,614.5 				"/>
			</g>
		</g>
	</g>
	<g>
		<g enable-background="new    ">
			<g>
				<polygon fill="#64867F" points="1085.7,847.6 1136.6,829 1215.9,1095.2 1165,1113.7 				"/>
			</g>
			<g>
				<polygon fill="#A2D8CB" points="1165,1113.7 912.8,1041.4 1085.7,847.6 				"/>
			</g>
		</g>
	</g>
	<g>
		<g enable-background="new    ">
			<g>
				<polygon fill="#64867F" points="195.4,314.7 219.5,283.4 371.9,416.3 347.7,447.6 				"/>
			</g>
			<g>
				<polygon fill="#A2D8CB" points="347.7,447.6 164.4,501.2 195.4,314.7 				"/>
			</g>
		</g>
	</g>
	<g>
		<g enable-background="new    ">
			<g>
				<polygon fill="#7FABA0" points="1211.6,772.1 1237.2,786 1156.1,916.5 1130.6,902.6 				"/>
			</g>
			<g>
				<polygon fill="#8CBDB1" points="1130.6,902.6 1067.9,771.7 1211.6,772.1 				"/>
			</g>
		</g>
	</g>
	<g>
		<g enable-background="new    ">
			<g>
				<polygon fill="#7FABA0" points="1169.5,457 1162.1,474.2 1073.7,429.6 1081.1,412.4 				"/>
			</g>
			<g>
				<polygon fill="#8CBDB1" points="1081.1,412.4 1161.5,364.7 1169.5,457 				"/>
			</g>
		</g>
	</g>
	<g>
		<g enable-background="new    ">
			<g>
				<polygon fill="#64857E" points="1092.3,734.5 1130.6,701.4 1315.9,641.5 1277.6,674.6 				"/>
			</g>
			<g>
				<polygon fill="#658880" points="1277.6,674.6 1315.9,641.5 1294.3,842.3 1256,875.4 				"/>
			</g>
			<g>
				<polygon fill="#A9DACF" points="1256,875.4 1092.3,734.5 1277.6,674.6 				"/>
			</g>
		</g>
	</g>
	<g>
		<g enable-background="new    ">
			<g>
				<polygon fill="#64857E" points="1159.6,601.4 1126,604.6 1062,559.9 1095.6,556.6 				"/>
			</g>
			<g>
				<polygon fill="#6E938A" points="1095.6,556.6 1062,559.9 1127.6,521.2 1161.2,518 				"/>
			</g>
			<g>
				<polygon fill="#A0D7CA" points="1161.2,518 1159.6,601.4 1095.6,556.6 				"/>
			</g>
		</g>
	</g>
	<g>
		<g enable-background="new    ">
			<g>
				<polygon fill="#64857E" points="1040.4,975.8 1006.8,979.1 942.8,934.3 976.4,931.1 				"/>
			</g>
			<g>
				<polygon fill="#6E938A" points="976.4,931.1 942.8,934.3 1008.4,895.7 1042,892.5 				"/>
			</g>
			<g>
				<polygon fill="#A0D7CA" points="1042,892.5 1040.4,975.8 976.4,931.1 				"/>
			</g>
		</g>
	</g>
	<g>
		<g enable-background="new    ">
			<g>
				<polygon fill="#64857E" points="703.5,907.3 714,901.3 741.6,906.4 731.1,912.5 				"/>
			</g>
			<g>
				<polygon fill="#6E938A" points="731.1,912.5 741.6,906.4 725.9,928.8 715.4,934.9 				"/>
			</g>
			<g>
				<polygon fill="#A0D7CA" points="715.4,934.9 703.5,907.3 731.1,912.5 				"/>
			</g>
		</g>
	</g>
	<g>
		<g enable-background="new    ">
			<g>
				<polygon fill="#64867F" points="1161.3,874.7 1174.9,854.1 1276.3,930.2 1262.6,950.9 				"/>
			</g>
			<g>
				<polygon fill="#A2D8CB" points="1262.6,950.9 1150.4,992.8 1161.3,874.7 				"/>
			</g>
		</g>
	</g>
	<g>
		<g enable-background="new    ">
			<g>
				<polygon fill="#64857E" points="1118.4,401.9 1178.8,392.3 1299.4,466.1 1239,475.7 				"/>
			</g>
			<g>
				<polygon fill="#6E938A" points="1239,475.7 1299.4,466.1 1185.2,543.1 1124.8,552.7 				"/>
			</g>
			<g>
				<polygon fill="#A0D7CA" points="1124.8,552.7 1118.4,401.9 1239,475.7 				"/>
			</g>
		</g>
	</g>
	<g>
		<g enable-background="new    ">
			<g>
				<polygon fill="#64857E" points="1160.1,577.9 1168,544.7 1231.8,498.4 1223.8,531.5 				"/>
			</g>
			<g>
				<polygon fill="#6E938A" points="1223.8,531.5 1231.8,498.4 1247.1,573.7 1239.1,606.8 				"/>
			</g>
			<g>
				<polygon fill="#A0D7CA" points="1239.1,606.8 1160.1,577.9 1223.8,531.5 				"/>
			</g>
		</g>
	</g>
	<g>
		<g enable-background="new    ">
			<g>
				<polygon fill="#9ACFC2" points="812.5,59.1 887,36.4 958,237.6 883.5,260.3 				"/>
			</g>
			<g>
				<polygon fill="#79A399" points="883.5,260.3 711.2,212 812.5,59.1 				"/>
			</g>
		</g>
	</g>
	<g>
		<g enable-background="new    ">
			<g>
				<polygon fill="#64867F" points="1107.2,511.4 1068.6,535.9 955.2,330.8 993.9,306.3 				"/>
			</g>
			<g>
				<polygon fill="#A2D8CB" points="993.9,306.3 1214.8,320.5 1107.2,511.4 				"/>
			</g>
		</g>
	</g>
	<g>
		<g enable-background="new    ">
			<g>
				<polygon fill="#7FABA0" points="992.4,225.7 1008.2,201.3 1132.1,292 1116.4,316.4 				"/>
			</g>
			<g>
				<polygon fill="#8CBDB1" points="1116.4,316.4 981.1,368.9 992.4,225.7 				"/>
			</g>
		</g>
	</g>
	<g>
		<g enable-background="new    ">
			<g>
				<polygon fill="#7FABA0" points="332.8,172.7 349.6,146.5 482.3,243.6 465.4,269.8 				"/>
			</g>
			<g>
				<polygon fill="#8CBDB1" points="465.4,269.8 320.7,326 332.8,172.7 				"/>
			</g>
		</g>
	</g>
	<g>
		<g enable-background="new    ">
			<g>
				<polygon fill="#7FABA0" points="234.7,1182.3 243.9,1168.1 316.3,1221 307.1,1235.3 				"/>
			</g>
			<g>
				<polygon fill="#8CBDB1" points="307.1,1235.3 228.1,1266 234.7,1182.3 				"/>
			</g>
		</g>
	</g>
	<g>
		<g enable-background="new    ">
			<g>
				<polygon fill="#64857E" points="945.9,341.8 915.7,301.1 870,111.9 900.2,152.5 				"/>
			</g>
			<g>
				<polygon fill="#658880" points="900.2,152.5 870,111.9 1068.7,148.6 1098.8,189.3 				"/>
			</g>
			<g>
				<polygon fill="#A9DACF" points="1098.8,189.3 945.9,341.8 900.2,152.5 				"/>
			</g>
		</g>
	</g>
	<g>
		<g enable-background="new    ">
			<g>
				<polygon fill="#64857E" points="672.8,207.1 644.1,153.1 674.6,15.1 703.3,69.1 				"/>
			</g>
			<g>
				<polygon fill="#6E938A" points="703.3,69.1 674.6,15.1 784.6,98 813.4,152 				"/>
			</g>
			<g>
				<polygon fill="#A0D7CA" points="813.4,152 672.8,207.1 703.3,69.1 				"/>
			</g>
		</g>
	</g>
	<g>
		<g enable-background="new    ">
			<g>
				<polygon fill="#64857E" points="811,105.4 768.5,109.5 687.6,52.9 730.1,48.8 				"/>
			</g>
			<g>
				<polygon fill="#6E938A" points="730.1,48.8 687.6,52.9 770.5,4.1 813,0 				"/>
			</g>
			<g>
				<polygon fill="#A0D7CA" points="813,0 811,105.4 730.1,48.8 				"/>
			</g>
		</g>
	</g>
	<g>
		<g enable-background="new    ">
			<g>
				<polygon fill="#64857E" points="1126.2,291.8 1098.3,282.8 1062.7,225.2 1090.6,234.2 				"/>
			</g>
			<g>
				<polygon fill="#6E938A" points="1090.6,234.2 1062.7,225.2 1128.2,217 1156.1,226 				"/>
			</g>
			<g>
				<polygon fill="#A0D7CA" points="1156.1,226 1126.2,291.8 1090.6,234.2 				"/>
			</g>
		</g>
	</g>
	<g>
		<g enable-background="new    ">
			<g>
				<polygon fill="#64857E" points="631.9,31.9 623.6,37.8 600.3,35.5 608.6,29.7 				"/>
			</g>
			<g>
				<polygon fill="#6E938A" points="608.6,29.7 600.3,35.5 611.7,15.8 620,9.9 				"/>
			</g>
			<g>
				<polygon fill="#A0D7CA" points="620,9.9 631.9,31.9 608.6,29.7 				"/>
			</g>
		</g>
	</g>
	<g>
		<g enable-background="new    ">
			<g>
				<polygon fill="#64857E" points="624.8,169.6 635.5,176.5 644.1,204.7 633.4,197.8 				"/>
			</g>
			<g>
				<polygon fill="#6E938A" points="633.4,197.8 644.1,204.7 615.6,200.9 604.9,194 				"/>
			</g>
			<g>
				<polygon fill="#A0D7CA" points="604.9,194 624.8,169.6 633.4,197.8 				"/>
			</g>
		</g>
	</g>
	<g>
		<g enable-background="new    ">
			<g>
				<polygon fill="#64857E" points="745.9,1290.4 737.6,1296.2 714.3,1294 722.6,1288.2 				"/>
			</g>
			<g>
				<polygon fill="#6E938A" points="722.6,1288.2 714.3,1294 725.7,1274.2 734,1268.4 				"/>
			</g>
			<g>
				<polygon fill="#A0D7CA" points="734,1268.4 745.9,1290.4 722.6,1288.2 				"/>
			</g>
		</g>
	</g>
	<g>
		<g enable-background="new    ">
			<g>
				<polygon fill="#64857E" points="1164.7,312.6 1155.1,309.3 1143.2,289.1 1152.8,292.4 				"/>
			</g>
			<g>
				<polygon fill="#6E938A" points="1152.8,292.4 1143.2,289.1 1165.9,286.8 1175.5,290.1 				"/>
			</g>
			<g>
				<polygon fill="#A0D7CA" points="1175.5,290.1 1164.7,312.6 1152.8,292.4 				"/>
			</g>
		</g>
	</g>
	<g>
		<g enable-background="new    ">
			<g>
				<polygon fill="#64857E" points="938.4,439 942,423.8 971.2,402.7 967.6,417.8 				"/>
			</g>
			<g>
				<polygon fill="#6E938A" points="967.6,417.8 971.2,402.7 978.2,437.1 974.5,452.3 				"/>
			</g>
			<g>
				<polygon fill="#A0D7CA" points="974.5,452.3 938.4,439 967.6,417.8 				"/>
			</g>
		</g>
	</g>
	<g>
		<g enable-background="new    ">
			<g>
				<polygon fill="#64857E" points="252.5,737.1 256.2,732 270.2,728.4 266.6,733.5 				"/>
			</g>
			<g>
				<polygon fill="#6E938A" points="266.6,733.5 270.2,728.4 267.7,742.3 264.1,747.4 				"/>
			</g>
			<g>
				<polygon fill="#A0D7CA" points="264.1,747.4 252.5,737.1 266.6,733.5 				"/>
			</g>
		</g>
	</g>
	<g>
		<g enable-background="new    ">
			<g>
				<polygon fill="#64857E" points="947.3,1235.9 940,1223.1 946.3,1189.6 953.6,1202.4 				"/>
			</g>
			<g>
				<polygon fill="#6E938A" points="953.6,1202.4 946.3,1189.6 973.4,1208.8 980.7,1221.6 				"/>
			</g>
			<g>
				<polygon fill="#A0D7CA" points="980.7,1221.6 947.3,1235.9 953.6,1202.4 				"/>
			</g>
		</g>
	</g>
	<g>
		<g enable-background="new    ">
			<g>
				<polygon fill="#64857E" points="820,937.8 842.4,935 885.9,963.8 863.5,966.6 				"/>
			</g>
			<g>
				<polygon fill="#6E938A" points="863.5,966.6 885.9,963.8 842.8,990.7 820.4,993.5 				"/>
			</g>
			<g>
				<polygon fill="#A0D7CA" points="820.4,993.5 820,937.8 863.5,966.6 				"/>
			</g>
		</g>
	</g>
	<g>
		<g enable-background="new    ">
			<g>
				<polygon fill="#64857E" points="345.3,285.7 371.8,274.5 435.2,294.6 408.7,305.8 				"/>
			</g>
			<g>
				<polygon fill="#6E938A" points="408.7,305.8 435.2,294.6 391.7,342.7 365.2,353.8 				"/>
			</g>
			<g>
				<polygon fill="#A0D7CA" points="365.2,353.8 345.3,285.7 408.7,305.8 				"/>
			</g>
		</g>
	</g>
	<g>
		<g enable-background="new    ">
			<g>
				<polygon fill="#64867F" points="676.7,160 666.6,174.2 597,118.4 607.1,104.2 				"/>
			</g>
			<g>
				<polygon fill="#A2D8CB" points="607.1,104.2 686.9,77.2 676.7,160 				"/>
			</g>
		</g>
	</g>
	<g>
		<g enable-background="new    ">
			<g>
				<polygon fill="#7FABA0" points="518.8,181 525.6,171.4 574.3,210.1 567.6,219.7 				"/>
			</g>
			<g>
				<polygon fill="#8CBDB1" points="567.6,219.7 512,238.8 518.8,181 				"/>
			</g>
		</g>
	</g>
	<g>
		<g enable-background="new    ">
			<g>
				<polygon fill="#7FABA0" points="851,1318.1 849.4,1336.8 751.3,1322.1 753,1303.4 				"/>
			</g>
			<g>
				<polygon fill="#8CBDB1" points="753,1303.4 814.6,1232.9 851,1318.1 				"/>
			</g>
		</g>
	</g>
	<g>
		<g enable-background="new    ">
			<g>
				<polygon fill="#7FABA0" points="1224.3,395.5 1223.8,401.3 1193.5,396.7 1194,391 				"/>
			</g>
			<g>
				<polygon fill="#8CBDB1" points="1194,391 1213.1,369.2 1224.3,395.5 				"/>
			</g>
		</g>
	</g>
	<g>
		<g enable-background="new    ">
			<g>
				<polygon fill="#7FABA0" points="764.3,499.5 759.6,498.2 767.9,474.1 772.6,475.4 				"/>
			</g>
			<g>
				<polygon fill="#8CBDB1" points="772.6,475.4 787.5,494.3 764.3,499.5 				"/>
			</g>
		</g>
	</g>
	<g>
		<g enable-background="new    ">
			<g>
				<polygon fill="#7FABA0" points="894.5,925.3 897.1,927.2 886,940.2 883.4,938.2 				"/>
			</g>
			<g>
				<polygon fill="#8CBDB1" points="883.4,938.2 878.8,922.8 894.5,925.3 				"/>
			</g>
		</g>
	</g>
	<g>
		<g enable-background="new    ">
			<g>
				<polygon fill="#7FABA0" points="910.5,449.9 913.1,451.8 902,464.8 899.5,462.8 				"/>
			</g>
			<g>
				<polygon fill="#8CBDB1" points="899.5,462.8 894.8,447.5 910.5,449.9 				"/>
			</g>
		</g>
	</g>
	<g>
		<g enable-background="new    ">
			<g>
				<polygon fill="#7FABA0" points="804.8,525.6 807.4,527.5 796.3,540.5 793.7,538.5 				"/>
			</g>
			<g>
				<polygon fill="#8CBDB1" points="793.7,538.5 789.1,523.1 804.8,525.6 				"/>
			</g>
		</g>
	</g>
	<g>
		<g enable-background="new    ">
			<g>
				<polygon fill="#7FABA0" points="1101.3,823.7 1103.9,825.6 1092.8,838.6 1090.3,836.6 				"/>
			</g>
			<g>
				<polygon fill="#8CBDB1" points="1090.3,836.6 1085.6,821.2 1101.3,823.7 				"/>
			</g>
		</g>
	</g>
	<g>
		<g enable-background="new    ">
			<g>
				<polygon fill="#7FABA0" points="716.4,1000.1 716.7,1003.1 700.4,1003.5 700.1,1000.4 				"/>
			</g>
			<g>
				<polygon fill="#8CBDB1" points="700.1,1000.4 708.2,987.3 716.4,1000.1 				"/>
			</g>
		</g>
	</g>
	<g>
		<g enable-background="new    ">
			<g>
				<polygon fill="#64857E" points="927,1122.7 943.2,1055.2 1073,960.8 1056.8,1028.3 				"/>
			</g>
			<g>
				<polygon fill="#6E938A" points="1056.8,1028.3 1073,960.8 1104.2,1114.1 1088,1181.6 				"/>
			</g>
			<g>
				<polygon fill="#A0D7CA" points="1088,1181.6 927,1122.7 1056.8,1028.3 				"/>
			</g>
		</g>
	</g>
	<g>
		<g enable-background="new    ">
			<g>
				<polygon fill="#64857E" points="282.3,423 293,483.2 221.3,605.1 210.7,544.8 				"/>
			</g>
			<g>
				<polygon fill="#6E938A" points="210.7,544.8 221.3,605.1 142.3,492.2 131.6,432 				"/>
			</g>
			<g>
				<polygon fill="#A0D7CA" points="131.6,432 282.3,423 210.7,544.8 				"/>
			</g>
		</g>
	</g>
	<g>
		<g enable-background="new    ">
			<g>
				<polygon fill="#9ACFC2" points="140.1,1012.4 111.6,939.9 306.6,853.3 335.1,925.7 				"/>
			</g>
			<g>
				<polygon fill="#79A399" points="335.1,925.7 300.6,1101.3 140.1,1012.4 				"/>
			</g>
		</g>
	</g>
	<g>
		<g enable-background="new    ">
			<g>
				<polygon fill="#64867F" points="237.2,738.4 197.9,775.7 18.9,563.4 58.3,526.1 				"/>
			</g>
			<g>
				<polygon fill="#A2D8CB" points="58.3,526.1 318.3,491.7 237.2,738.4 				"/>
			</g>
		</g>
	</g>
	<g>
		<g enable-background="new    ">
			<g>
				<polygon fill="#64867F" points="965.5,113.6 954.3,124.3 903,63.4 914.3,52.7 				"/>
			</g>
			<g>
				<polygon fill="#A2D8CB" points="914.3,52.7 988.8,42.9 965.5,113.6 				"/>
			</g>
		</g>
	</g>
	<g>
		<g enable-background="new    ">
			<g>
				<polygon fill="#7FABA0" points="143.8,838.9 114.8,836.4 137,684.4 166,686.9 				"/>
			</g>
			<g>
				<polygon fill="#8CBDB1" points="166,686.9 275.6,781.9 143.8,838.9 				"/>
			</g>
		</g>
	</g>
	<g>
		<g enable-background="new    ">
			<g>
				<polygon fill="#7FABA0" points="308.2,1111 308.2,1092.3 407,1097.8 407.1,1116.6 				"/>
			</g>
			<g>
				<polygon fill="#8CBDB1" points="407.1,1116.6 352.3,1192.4 308.2,1111 				"/>
			</g>
		</g>
	</g>
	<g>
		<g enable-background="new    ">
			<g>
				<polygon fill="#64857E" points="268.1,825.7 246.3,871.4 100.3,1000.3 122.2,954.6 				"/>
			</g>
			<g>
				<polygon fill="#658880" points="122.2,954.6 100.3,1000.3 39.9,807.5 61.8,761.9 				"/>
			</g>
			<g>
				<polygon fill="#A9DACF" points="61.8,761.9 268.1,825.7 122.2,954.6 				"/>
			</g>
		</g>
	</g>
	<g>
		<g enable-background="new    ">
			<g>
				<polygon fill="#64857E" points="799,980.2 790.2,985.4 751.2,990.6 760,985.4 				"/>
			</g>
			<g>
				<polygon fill="#658880" points="760,985.4 751.2,990.6 762.8,951.5 771.5,946.3 				"/>
			</g>
			<g>
				<polygon fill="#A9DACF" points="771.5,946.3 799,980.2 760,985.4 				"/>
			</g>
		</g>
	</g>
	<g>
		<g enable-background="new    ">
			<g>
				<polygon fill="#64867F" points="126.1,753.9 123.1,771 36.3,750.4 39.3,733.2 				"/>
			</g>
			<g>
				<polygon fill="#A2D8CB" points="39.3,733.2 99.9,674.7 126.1,753.9 				"/>
			</g>
		</g>
	</g>
	<g>
		<g enable-background="new    ">
			<g>
				<polygon fill="#64857E" points="377,1141.1 325.5,1174 185.5,1154.5 237,1121.6 				"/>
			</g>
			<g>
				<polygon fill="#6E938A" points="237,1121.6 185.5,1154.5 259.4,1038.3 311,1005.3 				"/>
			</g>
			<g>
				<polygon fill="#A0D7CA" points="311,1005.3 377,1141.1 237,1121.6 				"/>
			</g>
		</g>
	</g>
	<g>
		<g enable-background="new    ">
			<g>
				<polygon fill="#64857E" points="268.6,996.4 274.5,1029.9 234.6,1097.9 228.6,1064.3 				"/>
			</g>
			<g>
				<polygon fill="#6E938A" points="228.6,1064.3 234.6,1097.9 190.5,1035 184.5,1001.4 				"/>
			</g>
			<g>
				<polygon fill="#A0D7CA" points="184.5,1001.4 268.6,996.4 228.6,1064.3 				"/>
			</g>
		</g>
	</g>
	<g>
		<g enable-background="new    ">
			<g>
				<polygon fill="#9ACFC2" points="836.9,1199.4 776.5,1248.5 634.9,1088.8 695.4,1039.7 				"/>
			</g>
			<g>
				<polygon fill="#79A399" points="695.4,1039.7 873.2,1019.6 836.9,1199.4 				"/>
			</g>
		</g>
	</g>
	<g>
		<g enable-background="new    ">
			<g>
				<polygon fill="#64867F" points="343.6,1036.2 369.2,998.3 555,1141.1 529.3,1179 				"/>
			</g>
			<g>
				<polygon fill="#A2D8CB" points="529.3,1179 321.2,1254.2 343.6,1036.2 				"/>
			</g>
		</g>
	</g>
	<g>
		<g enable-background="new    ">
			<g>
				<polygon fill="#7FABA0" points="643.6,1202.1 650,1230.5 498.4,1255.3 492,1226.9 				"/>
			</g>
			<g>
				<polygon fill="#8CBDB1" points="492,1226.9 549.4,1093.6 643.6,1202.1 				"/>
			</g>
		</g>
	</g>
	<g>
		<g enable-background="new    ">
			<g>
				<polygon fill="#64857E" points="593.4,1087.5 643.6,1094.5 810.6,1194.7 760.4,1187.6 				"/>
			</g>
			<g>
				<polygon fill="#658880" points="760.4,1187.6 810.6,1194.7 645.1,1310.5 595,1303.5 				"/>
			</g>
			<g>
				<polygon fill="#A9DACF" points="595,1303.5 593.4,1087.5 760.4,1187.6 				"/>
			</g>
		</g>
	</g>
	<g>
		<g enable-background="new    ">
			<g>
				<polygon fill="#64857E" points="910.6,1009.6 957.6,1048.8 981.3,1188.2 934.3,1149 				"/>
			</g>
			<g>
				<polygon fill="#6E938A" points="934.3,1149 981.3,1188.2 848.1,1152.8 801.2,1113.6 				"/>
			</g>
			<g>
				<polygon fill="#A0D7CA" points="801.2,1113.6 910.6,1009.6 934.3,1149 				"/>
			</g>
		</g>
	</g>
	<g>
		<g enable-background="new    ">
			<g>
				<polygon fill="#64857E" points="820.9,1155.9 858.7,1136.1 955,1158.1 917.1,1177.9 				"/>
			</g>
			<g>
				<polygon fill="#6E938A" points="917.1,1177.9 955,1158.1 896.6,1234.5 858.7,1254.3 				"/>
			</g>
			<g>
				<polygon fill="#A0D7CA" points="858.7,1254.3 820.9,1155.9 917.1,1177.9 				"/>
			</g>
		</g>
	</g>
	<g>
		<g enable-background="new    ">
			<g>
				<polygon fill="#64857E" points="502.7,1251.1 528.6,1237.5 594.7,1252.6 568.7,1266.2 				"/>
			</g>
			<g>
				<polygon fill="#6E938A" points="568.7,1266.2 594.7,1252.6 554.6,1305 528.6,1318.6 				"/>
			</g>
			<g>
				<polygon fill="#A0D7CA" points="528.6,1318.6 502.7,1251.1 568.7,1266.2 				"/>
			</g>
		</g>
	</g>
	<g>
		<g enable-background="new    ">
			<g>
				<polygon fill="#64857E" points="103,463 112.1,458.2 135.3,463.5 126.2,468.3 				"/>
			</g>
			<g>
				<polygon fill="#6E938A" points="126.2,468.3 135.3,463.5 121.2,481.9 112.1,486.7 				"/>
			</g>
			<g>
				<polygon fill="#A0D7CA" points="112.1,486.7 103,463 126.2,468.3 				"/>
			</g>
		</g>
	</g>
	<g>
		<g enable-background="new    ">
			<g>
				<polygon fill="#64857E" points="205.8,1081.9 209.5,1091.5 201.5,1113.9 197.9,1104.3 				"/>
			</g>
			<g>
				<polygon fill="#6E938A" points="197.9,1104.3 201.5,1113.9 184.9,1097.8 181.2,1088.2 				"/>
			</g>
			<g>
				<polygon fill="#A0D7CA" points="181.2,1088.2 205.8,1081.9 197.9,1104.3 				"/>
			</g>
		</g>
	</g>
	<g>
		<g enable-background="new    ">
			<g>
				<polygon fill="#64857E" points="396.1,1282.3 405,1293.1 404.3,1325.4 395.5,1314.6 				"/>
			</g>
			<g>
				<polygon fill="#6E938A" points="395.5,1314.6 404.3,1325.4 375.9,1311.8 367.1,1300.9 				"/>
			</g>
			<g>
				<polygon fill="#A0D7CA" points="367.1,1300.9 396.1,1282.3 395.5,1314.6 				"/>
			</g>
		</g>
	</g>
	<g>
		<g enable-background="new    ">
			<g>
				<polygon fill="#64857E" points="29,826 37.9,836.8 37.2,869.1 28.4,858.3 				"/>
			</g>
			<g>
				<polygon fill="#6E938A" points="28.4,858.3 37.2,869.1 8.9,855.5 0,844.6 				"/>
			</g>
			<g>
				<polygon fill="#A0D7CA" points="0,844.6 29,826 28.4,858.3 				"/>
			</g>
		</g>
	</g>
	<g>
		<g enable-background="new    ">
			<g>
				<polygon fill="#64857E" points="1260.2,555.6 1270.7,546.2 1303.2,545.5 1292.7,554.9 				"/>
			</g>
			<g>
				<polygon fill="#6E938A" points="1292.7,554.9 1303.2,545.5 1290.7,574.6 1280.2,583.9 				"/>
			</g>
			<g>
				<polygon fill="#A0D7CA" points="1280.2,583.9 1260.2,555.6 1292.7,554.9 				"/>
			</g>
		</g>
	</g>
	<g>
		<g enable-background="new    ">
			<g>
				<polygon fill="#64857E" points="1204.6,997.8 1206.6,992 1218.7,984.7 1216.8,990.5 				"/>
			</g>
			<g>
				<polygon fill="#6E938A" points="1216.8,990.5 1218.7,984.7 1220.2,998.5 1218.3,1004.3 				"/>
			</g>
			<g>
				<polygon fill="#A0D7CA" points="1218.3,1004.3 1204.6,997.8 1216.8,990.5 				"/>
			</g>
		</g>
	</g>
	<g>
		<g enable-background="new    ">
			<g>
				<polygon fill="#64867F" points="139.1,344.9 143.1,328 228.6,353.5 224.6,370.4 				"/>
			</g>
			<g>
				<polygon fill="#A2D8CB" points="224.6,370.4 160.8,425.5 139.1,344.9 				"/>
			</g>
		</g>
	</g>
	<g>
		<g enable-background="new    ">
			<g>
				<polygon fill="#64867F" points="971.8,289.6 963.6,274.2 1044.6,236.9 1052.8,252.2 				"/>
			</g>
			<g>
				<polygon fill="#A2D8CB" points="1052.8,252.2 1041.3,335.7 971.8,289.6 				"/>
			</g>
		</g>
	</g>
	<g>
		<g enable-background="new    ">
			<g>
				<polygon fill="#64867F" points="322.9,316 340.2,317.8 325.8,405.9 308.5,404.1 				"/>
			</g>
			<g>
				<polygon fill="#A2D8CB" points="308.5,404.1 245.7,347.8 322.9,316 				"/>
			</g>
		</g>
	</g>
	<g>
		<g enable-background="new    ">
			<g>
				<polygon fill="#64867F" points="289.5,798.9 299.4,803.8 271.2,852.5 261.4,847.6 				"/>
			</g>
			<g>
				<polygon fill="#A2D8CB" points="261.4,847.6 236.9,800.4 289.5,798.9 				"/>
			</g>
		</g>
	</g>
	<g>
		<g enable-background="new    ">
			<g>
				<polygon fill="#7FABA0" points="1165.8,1039.7 1163.1,1051.2 1103.4,1033.7 1106,1022.3 				"/>
			</g>
			<g>
				<polygon fill="#8CBDB1" points="1106,1022.3 1150.3,983.6 1165.8,1039.7 				"/>
			</g>
		</g>
	</g>
	<g>
		<g enable-background="new    ">
			<g>
				<polygon fill="#7FABA0" points="303.9,935.7 310.6,926.1 359.4,964.7 352.6,974.4 				"/>
			</g>
			<g>
				<polygon fill="#8CBDB1" points="352.6,974.4 297.1,993.5 303.9,935.7 				"/>
			</g>
		</g>
	</g>
	<g>
		<g enable-background="new    ">
			<g>
				<polygon fill="#9ACFC2" points="167.4,583.5 197.9,598.5 160.4,683.6 130,668.6 				"/>
			</g>
			<g>
				<polygon fill="#79A399" points="130,668.6 89.7,601.9 167.4,583.5 				"/>
			</g>
		</g>
	</g>
	<g>
		<g enable-background="new    ">
			<g>
				<polygon fill="#9ACFC2" points="1307.3,340.4 1301.9,360.8 1245.3,348.5 1250.6,328.1 				"/>
			</g>
			<g>
				<polygon fill="#79A399" points="1250.6,328.1 1286.4,295.2 1307.3,340.4 				"/>
			</g>
		</g>
	</g>
	<g>
		<g enable-background="new    ">
			<g>
				<polygon fill="#9ACFC2" points="1290.6,809.8 1309,820.2 1282.7,871.8 1264.3,861.4 				"/>
			</g>
			<g>
				<polygon fill="#79A399" points="1264.3,861.4 1241.6,818.5 1290.6,809.8 				"/>
			</g>
		</g>
	</g>
	<g>
		<g enable-background="new    ">
			<g>
				<polygon fill="#9ACFC2" points="152.8,403.5 158,422.3 107.2,438.8 101.9,420 				"/>
			</g>
			<g>
				<polygon fill="#79A399" points="101.9,420 115.2,377.1 152.8,403.5 				"/>
			</g>
		</g>
	</g>
	<g>
		<g enable-background="new    ">
			<g>
				<polygon fill="#9ACFC2" points="836.4,433.7 836.6,422.1 868.4,421.3 868.2,432.9 				"/>
			</g>
			<g>
				<polygon fill="#79A399" points="868.2,432.9 853.4,455.1 836.4,433.7 				"/>
			</g>
		</g>
	</g>
	<g>
		<g enable-background="new    ">
			<g>
				<polygon fill="#9ACFC2" points="1130.1,730 1135.3,748.9 1084.4,765.4 1079.2,746.6 				"/>
			</g>
			<g>
				<polygon fill="#79A399" points="1079.2,746.6 1092.4,703.7 1130.1,730 				"/>
			</g>
		</g>
	</g>
	<g>
		<g enable-background="new    ">
			<g>
				<polygon fill="#9ACFC2" points="1063.9,858 1055.6,857 1057.4,834.2 1065.6,835.3 				"/>
			</g>
			<g>
				<polygon fill="#79A399" points="1065.6,835.3 1080.4,847.5 1063.9,858 				"/>
			</g>
		</g>
	</g>
	<g>
		<g enable-background="new    ">
			<g>
				<polygon fill="#9ACFC2" points="1008.6,440.5 1010.7,448.2 989.9,454.9 987.7,447.3 				"/>
			</g>
			<g>
				<polygon fill="#79A399" points="987.7,447.3 993.1,429.7 1008.6,440.5 				"/>
			</g>
		</g>
	</g>
	<g>
		<g enable-background="new    ">
			<g>
				<polygon fill="#9ACFC2" points="1177.9,798.7 1180.1,806.4 1159.2,813.1 1157.1,805.4 				"/>
			</g>
			<g>
				<polygon fill="#79A399" points="1157.1,805.4 1162.5,787.9 1177.9,798.7 				"/>
			</g>
		</g>
	</g>
	<g>
		<g enable-background="new    ">
			<g>
				<polygon fill="#9ACFC2" points="52.8,615.6 55,623.3 34.2,630 32,622.3 				"/>
			</g>
			<g>
				<polygon fill="#79A399" points="32,622.3 37.4,604.8 52.8,615.6 				"/>
			</g>
		</g>
	</g>
	<g>
		<g enable-background="new    ">
			<g>
				<polygon fill="#9ACFC2" points="346.8,1009.7 349,1017.4 328.2,1024.2 326,1016.5 				"/>
			</g>
			<g>
				<polygon fill="#79A399" points="326,1016.5 331.4,999 346.8,1009.7 				"/>
			</g>
		</g>
	</g>
	<g>
		<g enable-background="new    ">
			<g>
				<polygon fill="#9ACFC2" points="909.6,242 929,244.1 925.8,297.5 906.3,295.4 				"/>
			</g>
			<g>
				<polygon fill="#79A399" points="906.3,295.4 871.3,267.4 909.6,242 				"/>
			</g>
		</g>
	</g>
	<g>
		<g enable-background="new    ">
			<g>
				<polygon fill="#9ACFC2" points="165.4,1167.9 142.4,1184 95.4,1123.2 118.4,1107 				"/>
			</g>
			<g>
				<polygon fill="#79A399" points="118.4,1107 182.8,1104.1 165.4,1167.9 				"/>
			</g>
		</g>
	</g>
	<g>
		<g enable-background="new    ">
			<g>
				<polygon fill="#9ACFC2" points="938,988.3 937.4,996.1 916,995.6 916.5,987.8 				"/>
			</g>
			<g>
				<polygon fill="#79A399" points="916.5,987.8 927.2,973.4 938,988.3 				"/>
			</g>
		</g>
	</g>
	<g>
		<g enable-background="new    ">
			<g>
				<polygon fill="#9ACFC2" points="346.8,884.6 356,887.3 349.9,912.7 340.7,910.1 				"/>
			</g>
			<g>
				<polygon fill="#79A399" points="340.7,910.1 326.2,893.7 346.8,884.6 				"/>
			</g>
		</g>
	</g>
	<g>
		<g enable-background="new    ">
			<g>
				<polygon fill="#9ACFC2" points="1061.8,710.3 1063.4,703.9 1080.9,707.8 1079.3,714.1 				"/>
			</g>
			<g>
				<polygon fill="#79A399" points="1079.3,714.1 1068.2,724.2 1061.8,710.3 				"/>
			</g>
		</g>
	</g>
	<g>
		<g enable-background="new    ">
			<g>
				<polygon fill="#9ACFC2" points="1224.9,859.2 1230.5,864.7 1216.1,880.6 1210.5,875.1 				"/>
			</g>
			<g>
				<polygon fill="#79A399" points="1210.5,875.1 1206.5,857.6 1224.9,859.2 				"/>
			</g>
		</g>
	</g>
	<g>
		<g enable-background="new    ">
			<g>
				<polygon fill="#9ACFC2" points="299.3,216 285.6,226.8 254.4,190.4 268.1,179.6 				"/>
			</g>
			<g>
				<polygon fill="#79A399" points="268.1,179.6 308.1,175.8 299.3,216 				"/>
			</g>
		</g>
	</g>
	<g>
		<g enable-background="new    ">
			<g>
				<polygon fill="#8E9896" points="108.7,487.6 101,509.1 41.3,490.6 49,469.1 				"/>
			</g>
			<g>
				<polygon fill="#79A399" points="49,469.1 90.4,437.1 108.7,487.6 				"/>
			</g>
		</g>
	</g>
	<g>
		<g enable-background="new    ">
			<g>
				<polygon fill="#64857E" points="128,1005.2 127.7,1012.4 116.6,1024.5 116.8,1017.4 				"/>
			</g>
			<g>
				<polygon fill="#6E938A" points="116.8,1017.4 116.6,1024.5 110.3,1009.7 110.6,1002.6 				"/>
			</g>
			<g>
				<polygon fill="#A0D7CA" points="110.6,1002.6 128,1005.2 116.8,1017.4 				"/>
			</g>
		</g>
	</g>
	<g>
		<g enable-background="new    ">
			<g>
				<polygon fill="#7FABA0" points="231.4,991.3 217,995 201.9,918 216.3,914.3 				"/>
			</g>
			<g>
				<polygon fill="#8CBDB1" points="216.3,914.3 285.3,941.4 231.4,991.3 				"/>
			</g>
		</g>
	</g>
	<g>
		<g enable-background="new    ">
			<g>
				<polygon fill="#7FABA0" points="309.4,601.9 324.5,610 277.4,687.5 262.2,679.5 				"/>
			</g>
			<g>
				<polygon fill="#8CBDB1" points="262.2,679.5 224.5,602.5 309.4,601.9 				"/>
			</g>
		</g>
	</g>
	<g>
		<g enable-background="new    ">
			<g>
				<polygon fill="#64857E" points="1098.3,484.8 1111.5,477.9 1144.8,485.5 1131.7,492.4 				"/>
			</g>
			<g>
				<polygon fill="#6E938A" points="1131.7,492.4 1144.8,485.5 1124.6,512 1111.5,518.9 				"/>
			</g>
			<g>
				<polygon fill="#A0D7CA" points="1111.5,518.9 1098.3,484.8 1131.7,492.4 				"/>
			</g>
		</g>
	</g>
	<g>
		<g enable-background="new    ">
			<g>
				<polygon fill="#8E9896" points="791,1046 785.3,1061.9 741.1,1048.3 746.7,1032.3 				"/>
			</g>
			<g>
				<polygon fill="#79A399" points="746.7,1032.3 777.5,1008.6 791,1046 				"/>
			</g>
		</g>
	</g>
	<g>
		<g enable-background="new    ">
			<g>
				<polygon fill="#8E9896" points="928.2,375.5 921.4,394.5 868.4,378.1 875.2,359.1 				"/>
			</g>
			<g>
				<polygon fill="#79A399" points="875.2,359.1 912,330.7 928.2,375.5 				"/>
			</g>
		</g>
	</g>
</g>
</svg>
